<svg width="10" height="12" viewBox="0 0 10 12" fill="none" xmlns="http://www.w3.org/2000/svg">
<path d="M6.91995 7.20002H6.71245C6.17907 7.46073 5.59364 7.59747 4.99995 7.60002C4.38495 7.60002 3.80995 7.45002 3.28745 7.20002H3.07995C2.31619 7.20022 1.58376 7.50371 1.0437 8.04377C0.503641 8.58383 0.20015 9.31626 0.199951 10.08V10.8C0.199951 11.1183 0.326379 11.4235 0.551423 11.6485C0.776467 11.8736 1.08169 12 1.39995 12H8.59995C8.91821 12 9.22344 11.8736 9.44848 11.6485C9.67352 11.4235 9.79995 11.1183 9.79995 10.8V10.08C9.79975 9.31626 9.49626 8.58383 8.9562 8.04377C8.41614 7.50371 7.68371 7.20022 6.91995 7.20002ZM4.99995 6.40002C5.55374 6.40002 6.09509 6.2358 6.55555 5.92813C7.01601 5.62047 7.37489 5.18317 7.58681 4.67153C7.79874 4.1599 7.85419 3.59691 7.74615 3.05377C7.63811 2.51062 7.37144 2.01171 6.97985 1.62012C6.58826 1.22853 6.08935 0.961859 5.5462 0.853821C5.00306 0.745782 4.44007 0.801232 3.92844 1.01316C3.4168 1.22508 2.9795 1.58397 2.67184 2.04442C2.36417 2.50488 2.19995 3.04623 2.19995 3.60002C2.19975 3.96778 2.27204 4.33197 2.41269 4.67177C2.55333 5.01157 2.75957 5.32031 3.01961 5.58036C3.27966 5.8404 3.5884 6.04664 3.9282 6.18728C4.268 6.32793 4.63219 6.40022 4.99995 6.40002Z" fill="#213F7D"/>
</svg>
