<svg width="16" height="16" viewBox="0 0 16 16" fill="none" xmlns="http://www.w3.org/2000/svg">
<path d="M15.8305 8.56571C15.3056 6.34366 13.4761 4.57078 11.2371 4.12369C10.1772 3.90816 9.07898 3.97955 8.05588 4.33048C8.16961 3.57377 8.47478 2.85866 8.94245 2.25299C9.41012 1.64732 10.0248 1.17118 10.7281 0.869728C11.1442 0.69175 11.0505 0.075416 10.6002 0.030068C9.91897 -0.0371637 9.23132 0.00993299 8.56564 0.169412C6.34374 0.694313 4.5708 2.52378 4.12379 4.76279C3.90819 5.82273 3.97958 6.92101 4.33057 7.94412C3.57385 7.83037 2.85874 7.52517 2.25307 7.05749C1.6474 6.58982 1.17125 5.97516 0.869783 5.27182C0.691806 4.85575 0.0754766 4.94944 0.0300682 5.39975C-0.0371723 6.08095 0.00994484 6.76859 0.169471 7.43424C0.694369 9.65628 2.52382 11.4292 4.76282 11.8762C5.82273 12.0918 6.92098 12.0204 7.94407 11.6695C7.83034 12.4262 7.52517 13.1413 7.0575 13.747C6.58983 14.3526 5.97518 14.8288 5.27185 15.1302C4.85571 15.3082 4.94946 15.9245 5.39978 15.9699C6.08098 16.0371 6.76863 15.99 7.43431 15.8305C9.65621 15.3056 11.4291 13.4762 11.8762 11.2372C12.0918 10.1772 12.0204 9.07893 11.6694 8.05582C12.4261 8.16958 13.1412 8.47477 13.7469 8.94245C14.3526 9.41013 14.8287 10.0248 15.1302 10.7281C15.3081 11.1442 15.9245 11.0505 15.9699 10.6002C16.0371 9.919 15.99 9.23136 15.8305 8.56571V8.56571ZM7.99998 9.49997C7.7033 9.49997 7.41329 9.412 7.16662 9.24718C6.91994 9.08236 6.72768 8.84809 6.61415 8.574C6.50062 8.29992 6.47091 7.99832 6.52879 7.70734C6.58666 7.41637 6.72952 7.1491 6.9393 6.93932C7.14908 6.72954 7.41635 6.58667 7.70733 6.5288C7.9983 6.47092 8.2999 6.50062 8.57399 6.61415C8.84808 6.72768 9.08235 6.91994 9.24717 7.16662C9.41199 7.41329 9.49996 7.7033 9.49996 7.99997C9.49996 8.39779 9.34192 8.77932 9.06062 9.06062C8.77932 9.34192 8.3978 9.49996 7.99998 9.49997Z" fill="#213F7D"/>
</svg>
