<svg width="10" height="12" viewBox="0 0 10 12" fill="none" xmlns="http://www.w3.org/2000/svg">
<path d="M4.8 6.40002C5.35379 6.40002 5.89514 6.2358 6.3556 5.92813C6.81605 5.62047 7.17494 5.18317 7.38686 4.67153C7.59879 4.1599 7.65424 3.59691 7.5462 3.05377C7.43816 2.51062 7.17149 2.01171 6.7799 1.62012C6.38831 1.22853 5.8894 0.961859 5.34625 0.853821C4.80311 0.745782 4.24012 0.801232 3.72849 1.01316C3.21685 1.22508 2.77955 1.58397 2.47189 2.04442C2.16422 2.50488 2 3.04623 2 3.60002C1.9998 3.96778 2.07209 4.33197 2.21274 4.67177C2.35338 5.01157 2.55962 5.32031 2.81966 5.58036C3.0797 5.8404 3.38845 6.04664 3.72825 6.18728C4.06805 6.32793 4.43224 6.40022 4.8 6.40002ZM6.72 7.20002H6.5125C5.97911 7.46073 5.39369 7.59747 4.8 7.60002C4.185 7.60002 3.61 7.45002 3.0875 7.20002H2.88C2.11624 7.20022 1.38381 7.50371 0.843752 8.04377C0.30369 8.58383 0.000198819 9.31626 0 10.08L0 10.8C0 11.1183 0.126428 11.4235 0.351472 11.6485C0.576515 11.8736 0.88174 12 1.2 12H8.4C8.71826 12 9.02349 11.8736 9.24853 11.6485C9.47357 11.4235 9.6 11.1183 9.6 10.8V10.08C9.5998 9.31626 9.29631 8.58383 8.75625 8.04377C8.21619 7.50371 7.48376 7.20022 6.72 7.20002Z" fill="#213F7D"/>
</svg>
